<svg aria-hidden="true" style="width:0;height:0;position:absolute;overflow:hidden" xmlns="http://www.w3.org/2000/svg"><defs><symbol id="icon-film" viewBox="0 0 32 32"><path fill="none" stroke="#fff" style="stroke:var(--color1,#fff)" stroke-linejoin="round" stroke-linecap="round" stroke-width="2.667" d="M26.427 2.667H5.574a2.907 2.907 0 0 0-2.907 2.907v20.853a2.907 2.907 0 0 0 2.907 2.907h20.853a2.907 2.907 0 0 0 2.907-2.907V5.574a2.907 2.907 0 0 0-2.907-2.907zM9.333 2.667v26.667M22.667 2.667v26.667M2.667 16h26.667M2.667 9.333h6.667M2.667 22.667h6.667M22.667 22.667h6.667M22.667 9.333h6.667"/></symbol><symbol id="icon-search" viewBox="0 0 32 32"><path fill="none" stroke="#fff" style="stroke:var(--color1,#fff)" stroke-linejoin="round" stroke-linecap="round" stroke-width="2.667" d="M14.667 25.333c5.891 0 10.667-4.776 10.667-10.667S20.558 3.999 14.667 3.999 4 8.775 4 14.666s4.776 10.667 10.667 10.667zM28 28.001l-5.8-5.8"/></symbol><symbol id="icon-contrast" viewBox="0 0 32 32"><path d="M16 8a8 8 0 1 0 0 16 8 8 0 0 0 0-16zm0 13V11c2.757 0 5 2.243 5 5s-2.243 5-5 5zm0 5a2 2 0 0 1 2 2v2a2 2 0 1 1-4 0v-2a2 2 0 0 1 2-2zm0-20a2 2 0 0 1-2-2V2a2 2 0 1 1 4 0v2a2 2 0 0 1-2 2zm14 8a2 2 0 1 1 0 4h-2a2 2 0 1 1 0-4h2zM6 16a2 2 0 0 1-2 2H2a2 2 0 1 1 0-4h2a2 2 0 0 1 2 2zm19.899 7.071 1.414 1.414a2 2 0 1 1-2.828 2.828l-1.414-1.414a2 2 0 1 1 2.828-2.828zM6.101 8.929 4.687 7.515a2 2 0 1 1 2.828-2.828l1.414 1.414a2 2 0 1 1-2.828 2.828zm19.798 0a2 2 0 1 1-2.828-2.828l1.414-1.414a2 2 0 1 1 2.828 2.828l-1.414 1.414zM6.101 23.071a2 2 0 1 1 2.828 2.828l-1.414 1.414a2 2 0 1 1-2.828-2.828l1.414-1.414z"/></symbol><symbol id="icon-moon" viewBox="0 0 23 28"><path d="M19.719 20.359c-.562.094-1.141.141-1.719.141-5.797 0-10.5-4.703-10.5-10.5 0-1.984.578-3.922 1.625-5.578A9.952 9.952 0 0 0 2 14c0 5.516 4.484 10 10 10 3.016 0 5.844-1.375 7.719-3.641zm3.172-1.328A12.035 12.035 0 0 1 12 26C5.391 26 0 20.609 0 14A11.95 11.95 0 0 1 11.547 2.016a.976.976 0 0 1 .953.609c.172.391.063.844-.234 1.125A8.372 8.372 0 0 0 9.5 10c0 4.688 3.813 8.5 8.5 8.5a8.352 8.352 0 0 0 3.563-.797 1 1 0 0 1 1.328 1.328z"/></symbol><symbol id="icon-sun" viewBox="0 0 28 28"><path d="M23 14c0-4.969-4.031-9-9-9s-9 4.031-9 9 4.031 9 9 9 9-4.031 9-9zm4.312 4.328a.482.482 0 0 1-.313.313l-4.562 1.5v4.781a.517.517 0 0 1-.203.406.475.475 0 0 1-.453.063l-4.562-1.469-2.812 3.875c-.094.125-.25.203-.406.203s-.313-.078-.406-.203l-2.812-3.875-4.562 1.469a.472.472 0 0 1-.453-.063.518.518 0 0 1-.203-.406v-4.781l-4.562-1.5c-.141-.047-.266-.156-.313-.313s-.031-.328.063-.453L3.565 14 .753 10.125C.659 9.984.644 9.828.69 9.672s.172-.266.313-.313l4.562-1.5V3.078c0-.156.078-.313.203-.406a.475.475 0 0 1 .453-.063l4.562 1.469L13.595.203c.187-.25.625-.25.812 0l2.812 3.875 4.562-1.469a.472.472 0 0 1 .453.063c.125.094.203.25.203.406v4.781l4.562 1.5c.141.047.266.156.313.313s.031.313-.063.453L24.437 14l2.812 3.875a.514.514 0 0 1 .063.453z"/></symbol></defs></svg>